<svg height='100px' width='100px'  fill="#000000" xmlns="http://www.w3.org/2000/svg" data-name="Layer 26" viewBox="0 0 100 100" x="0px" y="0px"><title>12. shape</title><path d="M45.53,52.74a.52.52,0,0,1-.45-.28.5.5,0,0,1,.22-.67L48.88,50,10.5,30.81V69.19L14,67.44a.5.5,0,0,1,.67.23.51.51,0,0,1-.22.67L11.12,70,49.5,89.19V50.81l-3.75,1.87A.46.46,0,0,1,45.53,52.74ZM23.39,63.86,18.92,66.1a.44.44,0,0,1-.22.05.5.5,0,0,1-.45-.27.5.5,0,0,1,.22-.67L22.94,63a.5.5,0,0,1,.67.22A.49.49,0,0,1,23.39,63.86Zm8.94-4.47-4.47,2.24a.59.59,0,0,1-.22,0,.5.5,0,0,1-.22-1l4.47-2.23a.49.49,0,0,1,.67.22A.5.5,0,0,1,32.33,59.39Zm9-4.47-4.47,2.24a.59.59,0,0,1-.23.05.48.48,0,0,1-.44-.28.49.49,0,0,1,.22-.67L40.83,54a.5.5,0,0,1,.67.23A.49.49,0,0,1,41.28,54.92Z"></path><path d="M54.7,51.79a.5.5,0,0,1,.22.67.52.52,0,0,1-.45.28.46.46,0,0,1-.22-.06L50.5,50.81V89.19L88.88,70l-3.33-1.66a.51.51,0,0,1-.22-.67.5.5,0,0,1,.67-.23l3.5,1.75V30.81L51.12,50Zm21.69,11.4a.5.5,0,0,1,.67-.22l4.47,2.24a.49.49,0,0,1,.22.67.5.5,0,0,1-.45.27.44.44,0,0,1-.22-.05l-4.47-2.24A.49.49,0,0,1,76.39,63.19Zm-9-4.47a.5.5,0,0,1,.67-.22l4.47,2.23a.5.5,0,0,1-.22,1,.59.59,0,0,1-.22,0l-4.47-2.24A.5.5,0,0,1,67.44,58.72ZM58.5,54.25a.5.5,0,0,1,.67-.23l4.47,2.24a.49.49,0,0,1,.22.67.48.48,0,0,1-.44.28.59.59,0,0,1-.23-.05l-4.47-2.24A.49.49,0,0,1,58.5,54.25Z"></path><path d="M50.5,10.81V15a.5.5,0,0,1-1,0V10.81L11.12,30,50,49.44,88.88,30ZM50.5,45a.5.5,0,0,1-1,0V40a.5.5,0,0,1,1,0Zm0-10a.5.5,0,0,1-1,0V30a.5.5,0,0,1,1,0Zm0-10a.5.5,0,0,1-1,0V20a.5.5,0,0,1,1,0Z"></path></svg>